<?xml version="1.0" encoding="utf-8"?>
<!-- Generator: Adobe Illustrator 19.0.1, SVG Export Plug-In . SVG Version: 6.00 Build 0)  -->
<svg version="1.1" id="Layer_1" xmlns="http://www.w3.org/2000/svg" xmlns:xlink="http://www.w3.org/1999/xlink" x="0px" y="0px"
	 viewBox="385.7 304.9 316.4 234.9" style="enable-background:new 385.7 304.9 316.4 234.9;" xml:space="preserve">
<style type="text/css">
	.st0{fill:#A7A7A7;}
</style>
<g>
	<path class="st0" d="M590.8,381.1l-5.5-23.2h-29.1v14.8H544h-12.1v-14.8h-29.1l-5.5,23.2c0,0-76.2,36.4-78.3,78.6
		c-1.5,29.1,6.6,62.5,6.6,62.5s2.4,16.8,14.7,17.6h99.9H648c12.2-0.7,14.7-17.6,14.7-17.6s8-33.4,6.6-62.5
		C667,417.4,590.8,381.1,590.8,381.1z M544,395.7L544,395.7c29.1,0,52.8,23.7,52.8,52.8s-23.7,52.8-52.8,52.8l0,0
		c-29.1,0-52.8-23.7-52.8-52.8S514.9,395.7,544,395.7z"/>
	<path class="st0" d="M544,489.3L544,489.3c22.5,0,40.7-18.3,40.7-40.7c0-22.4-18.3-40.7-40.7-40.7l0,0c-22.5,0-40.7,18.3-40.7,40.7
		C503.3,471,521.6,489.3,544,489.3z"/>
	<path class="st0" d="M638.3,307.9c-17.2-3.6-94.3-3-94.3-3s-77-0.6-94.3,3c-17.2,3.6-66.3,37.3-63.9,66.8
		c1.6,19.4,38.6,40.4,50,35.2c19.3-8.7,42.2-53.5,45-60.3c3.2-7.7,5.8-14.7,12.3-14.7s50.8,0,50.8,0s44.3,0,50.8,0s9.1,7,12.3,14.7
		c2.8,6.8,25.8,51.6,45,60.3c11.4,5.1,48.4-15.8,50-35.2C704.6,345.2,655.5,311.4,638.3,307.9z"/>
</g>
</svg>
